<svg width="419" height="350" fill="none" xmlns="http://www.w3.org/2000/svg"><path opacity=".099" d="M-78.245 266.353L-527.256.729c-14.295-8.046-26.548-21.228-12.619-29.877L-89.267-289.11c6.754-4.194 17.018-6.946 23.903-2.936L405.901-18.219c14.296 8.308 16.861 31.45 2.619 39.837L-19.075 265.933a59.64 59.64 0 01-59.17.42z" stroke="#1E1F36"/><path opacity=".099" d="M-78.245 341.353L-527.256 75.729c-14.295-8.046-26.548-21.228-12.619-29.877L-89.267-214.11c6.754-4.194 17.018-6.946 23.903-2.936L405.901 56.781c14.296 8.308 16.861 31.45 2.619 39.837L-19.075 340.933a59.64 59.64 0 01-59.17.42z" stroke="#1E1F36"/></svg>